<svg width="88" height="77" viewBox="0 0 88 77" fill="none" xmlns="http://www.w3.org/2000/svg">
<path d="M44.1364 76.1364L7.63068 39.6307C4.71875 36.7188 2.77746 33.3333 1.80682 29.4744C0.859849 25.6155 0.871686 21.7803 1.84233 17.9688C2.81297 14.1335 4.74242 10.7955 7.63068 7.95454C10.59 5.04261 13.9635 3.11316 17.7514 2.16619C21.563 1.19555 25.3627 1.19555 29.1506 2.16619C32.9621 3.13684 36.3475 5.06629 39.3068 7.95454L44.1364 12.642L48.9659 7.95454C51.9489 5.06629 55.3343 3.13684 59.1222 2.16619C62.91 1.19555 66.6979 1.19555 70.4858 2.16619C74.2973 3.11316 77.6828 5.04261 80.642 7.95454C83.5303 10.7955 85.4598 14.1335 86.4304 17.9688C87.401 21.7803 87.401 25.6155 86.4304 29.4744C85.4834 33.3333 83.554 36.7188 80.642 39.6307L44.1364 76.1364Z" fill="#FF9B9B"/>
</svg>
