<svg width="180" height="80" viewBox="0 0 180 80" fill="none" xmlns="http://www.w3.org/2000/svg">
<rect width="180" height="80" rx="8" fill="#FFF5F5"/>
<path d="M44.6764 59.3915H56.468L48.8445 45.7901C52.6289 43.5946 54.9323 39.7926 54.9323 35.1874C54.9323 27.3693 48.8994 21.9073 40.6727 21.9073H24V59.3915H34.585V47.932H38.4241L44.6764 59.3915ZM34.585 31.1177H39.4113C42.3729 31.1177 44.0731 32.8313 44.0731 35.1874C44.0731 37.49 42.3729 39.2571 39.4113 39.2571H34.585V31.1177ZM71.593 50.4488V44.8262H84.2074V36.3655H71.593V30.8499H85.6333V21.9073H61.0629V59.3915H86.1269V50.4488H71.593ZM91.4677 40.1139H101.34V30.8499H91.4677V40.1139ZM91.4677 59.3915H101.34V50.1811H91.4677V59.3915ZM132.405 60L112.384 40.4516C110.787 38.8923 109.722 37.0795 109.19 35.0131C108.67 32.9467 108.677 30.8929 109.21 28.8519C109.742 26.7982 110.8 25.0107 112.384 23.4894C114.006 21.9301 115.857 20.8969 117.934 20.3898C120.025 19.8701 122.109 19.8701 124.186 20.3898C126.276 20.9096 128.133 21.9428 129.756 23.4894L132.405 25.9995L135.054 23.4894C136.69 21.9428 138.547 20.9096 140.624 20.3898C142.701 19.8701 144.779 19.8701 146.856 20.3898C148.947 20.8969 150.803 21.9301 152.426 23.4894C154.011 25.0107 155.069 26.7982 155.601 28.8519C156.133 30.8929 156.133 32.9467 155.601 35.0131C155.082 37.0795 154.024 38.8923 152.426 40.4516L132.405 60Z" fill="#FF9B9B"/>
</svg>
