<svg width="242" height="77" viewBox="0 0 242 77" fill="none" xmlns="http://www.w3.org/2000/svg">
<path d="M38.0797 75H59.5797L45.6797 49.6C52.5797 45.5 56.7797 38.4 56.7797 29.8C56.7797 15.2 45.7797 5 30.7797 5H0.379688V75H19.6797V53.6H26.6797L38.0797 75ZM19.6797 22.2H28.4797C33.8797 22.2 36.9797 25.4 36.9797 29.8C36.9797 34.1 33.8797 37.4 28.4797 37.4H19.6797V22.2ZM87.1578 58.3V47.8H110.158V32H87.1578V21.7H112.758V5H67.9578V75H113.658V58.3H87.1578ZM123.396 39H141.396V21.7H123.396V39ZM123.396 75H141.396V57.8H123.396V75ZM198.039 76.1364L161.533 39.6307C158.621 36.7188 156.68 33.3333 155.709 29.4744C154.762 25.6155 154.774 21.7803 155.745 17.9688C156.715 14.1335 158.645 10.7955 161.533 7.95454C164.492 5.04261 167.866 3.11316 171.654 2.16619C175.465 1.19555 179.265 1.19555 183.053 2.16619C186.864 3.13684 190.25 5.06629 193.209 7.95454L198.039 12.642L202.868 7.95454C205.851 5.06629 209.237 3.13684 213.025 2.16619C216.812 1.19555 220.6 1.19555 224.388 2.16619C228.2 3.11316 231.585 5.04261 234.544 7.95454C237.433 10.7955 239.362 14.1335 240.333 17.9688C241.303 21.7803 241.303 25.6155 240.333 29.4744C239.386 33.3333 237.456 36.7188 234.544 39.6307L198.039 76.1364Z" fill="#FF9B9B"/>
</svg>
