<svg width="215" height="41" viewBox="0 0 215 41" fill="none" xmlns="http://www.w3.org/2000/svg">
<path d="M20.706 39.9975H32.5145L24.8801 26.1868C28.6699 23.9576 30.9766 20.0971 30.9766 15.4211C30.9766 7.48264 24.935 1.93664 16.6966 1.93664H0V39.9975H10.6001V28.3617H14.4447L20.706 39.9975ZM10.6001 11.2887H15.4334C18.3992 11.2887 20.1018 13.0287 20.1018 15.4211C20.1018 17.7591 18.3992 19.5534 15.4334 19.5534H10.6001V11.2887ZM47.6612 30.9172V25.2081H60.2936V16.6172H47.6612V11.0169H61.7216V1.93664H37.1159V39.9975H62.2159V30.9172H47.6612ZM67.5643 20.4233H77.4506V11.0169H67.5643V20.4233ZM67.5643 39.9975H77.4506V30.6454H67.5643V39.9975ZM108.561 40.6154L88.5102 20.7662C86.911 19.183 85.8447 17.3422 85.3118 15.244C84.7912 13.1458 84.798 11.0605 85.3316 8.98812C85.8644 6.90279 86.924 5.08781 88.5102 3.5431C90.1354 1.95981 91.9887 0.910712 94.069 0.395822C96.1622 -0.131941 98.2493 -0.131941 100.33 0.395822C102.423 0.923587 104.282 1.97268 105.907 3.5431L108.561 6.0918L111.213 3.5431C112.851 1.97268 114.711 0.923587 116.791 0.395822C118.872 -0.131941 120.952 -0.131941 123.032 0.395822C125.126 0.910712 126.985 1.95981 128.61 3.5431C130.197 5.08781 131.256 6.90279 131.79 8.98812C132.322 11.0605 132.322 13.1458 131.79 15.244C131.269 17.3422 130.21 19.183 128.61 20.7662L108.561 40.6154Z" fill="#FF9B9B"/>
<path d="M145.122 31.9511H139.916V35.1326H144.44V36.3104H139.916V40.6698H138.703V30.7868H145.122V31.9511ZM151.021 39.5732C151.729 39.5732 152.365 39.4018 152.928 39.0588C153.492 38.7158 153.932 38.2554 154.25 37.6778C154.569 37.0911 154.727 36.4413 154.727 35.7283C154.727 35.0243 154.569 34.379 154.25 33.7923C153.932 33.2056 153.492 32.7453 152.928 32.4114C152.365 32.0684 151.729 31.8969 151.021 31.8969C150.303 31.8969 149.663 32.0684 149.099 32.4114C148.536 32.7453 148.095 33.2056 147.777 33.7923C147.469 34.379 147.314 35.0243 147.314 35.7283C147.314 36.4413 147.469 37.0911 147.777 37.6778C148.095 38.2645 148.536 38.7293 149.099 39.0723C149.663 39.4062 150.303 39.5732 151.021 39.5732ZM146.101 35.7283C146.101 34.8077 146.31 33.9638 146.728 33.1966C147.155 32.4204 147.741 31.8067 148.486 31.3554C149.231 30.9041 150.075 30.6784 151.021 30.6784C151.966 30.6784 152.811 30.9041 153.555 31.3554C154.3 31.8067 154.882 32.4204 155.3 33.1966C155.727 33.9638 155.94 34.8077 155.94 35.7283C155.94 36.6489 155.727 37.4973 155.3 38.2735C154.882 39.0407 154.3 39.6499 153.555 40.1012C152.811 40.5525 151.966 40.7781 151.021 40.7781C150.075 40.7781 149.231 40.5525 148.486 40.1012C147.741 39.6499 147.155 39.0407 146.728 38.2735C146.31 37.4973 146.101 36.6489 146.101 35.7283ZM161.393 35.8637C161.748 35.8637 162.075 35.7779 162.375 35.6064C162.674 35.4259 162.911 35.1868 163.083 34.8889C163.265 34.5821 163.356 34.2526 163.356 33.9006C163.356 33.5486 163.265 33.2237 163.083 32.9258C162.911 32.628 162.674 32.3933 162.375 32.2218C162.075 32.0504 161.748 31.9646 161.393 31.9646H158.668V35.8637H161.393ZM157.469 30.7868H161.434C161.998 30.7868 162.511 30.9267 162.974 31.2064C163.446 31.4772 163.819 31.8518 164.092 32.3301C164.373 32.8085 164.514 33.332 164.514 33.9006C164.505 34.6227 164.282 35.259 163.846 35.8095C163.419 36.3511 162.874 36.7121 162.211 36.8926L164.991 40.6698H163.519L160.835 37.028H158.668V40.6698H157.469V30.7868ZM176.254 33.1289C176.073 32.813 175.814 32.5422 175.478 32.3166C174.95 31.9646 174.364 31.7886 173.72 31.7886C173.556 31.7886 173.438 31.7931 173.365 31.8021C173.029 31.8382 172.734 31.9194 172.48 32.0458C172.225 32.1722 172.02 32.3843 171.866 32.6821C171.785 32.8717 171.744 33.0612 171.744 33.2508C171.744 33.5847 171.839 33.869 172.03 34.1037C172.184 34.2842 172.366 34.4467 172.575 34.5911C172.747 34.6994 172.897 34.7896 173.025 34.8618C173.151 34.925 173.297 34.9791 173.461 35.0243L174.128 35.2409C174.919 35.4756 175.519 35.7012 175.927 35.9178C176.345 36.1254 176.654 36.3375 176.854 36.5541C177.018 36.7437 177.154 36.9738 177.263 37.2446C177.372 37.5154 177.426 37.8087 177.426 38.1246C177.426 38.4676 177.358 38.797 177.222 39.1129C176.94 39.6454 176.5 40.0696 175.9 40.3855C175.345 40.6473 174.882 40.7871 174.51 40.8052C174.292 40.8233 174.133 40.8323 174.033 40.8323C173.188 40.8323 172.384 40.5796 171.621 40.0741C171.221 39.8124 170.894 39.5101 170.64 39.1671C170.394 38.8241 170.231 38.5308 170.149 38.2871L171.294 37.8944C171.366 38.084 171.48 38.2916 171.635 38.5172C171.798 38.7428 172.016 38.9459 172.289 39.1264C172.597 39.325 172.884 39.4694 173.147 39.5597C173.41 39.6499 173.688 39.6951 173.979 39.6951C174.069 39.6951 174.214 39.6861 174.415 39.668C174.678 39.6409 174.987 39.5461 175.341 39.3837C175.696 39.1851 175.955 38.9414 176.118 38.6526C176.209 38.4631 176.254 38.2781 176.254 38.0975C176.254 37.8177 176.154 37.5605 175.955 37.3258C175.836 37.1814 175.623 37.0415 175.314 36.9061C175.014 36.7618 174.505 36.5722 173.788 36.3375L173.12 36.1209C172.629 35.9494 172.225 35.7508 171.907 35.5252C171.716 35.3988 171.548 35.2725 171.403 35.1461C171.267 35.0198 171.171 34.9205 171.117 34.8483C170.953 34.6497 170.817 34.4105 170.708 34.1308C170.599 33.851 170.544 33.5576 170.544 33.2508C170.544 32.8988 170.621 32.5558 170.776 32.2218C171.012 31.7164 171.362 31.3464 171.825 31.1117C172.289 30.868 172.756 30.7191 173.229 30.6649C173.32 30.6559 173.461 30.6514 173.652 30.6514C174.614 30.6514 175.441 30.8861 176.132 31.3554C176.613 31.6713 176.994 32.0594 177.277 32.5197L176.254 33.1289ZM185.712 31.9511H180.356V34.9972H185.29V36.1751H180.356V39.492H185.712V40.6698H179.157V30.7868H185.712V31.9511ZM192.17 39.5732C192.879 39.5732 193.515 39.4018 194.078 39.0588C194.641 38.7158 195.082 38.2554 195.4 37.6778C195.718 37.0911 195.877 36.4413 195.877 35.7283C195.877 35.0243 195.718 34.379 195.4 33.7923C195.082 33.2056 194.641 32.7453 194.078 32.4114C193.515 32.0684 192.879 31.8969 192.17 31.8969C191.452 31.8969 190.812 32.0684 190.249 32.4114C189.685 32.7453 189.244 33.2056 188.927 33.7923C188.618 34.379 188.464 35.0243 188.464 35.7283C188.464 36.4413 188.618 37.0911 188.927 37.6778C189.244 38.2645 189.685 38.7293 190.249 39.0723C190.812 39.4062 191.452 39.5732 192.17 39.5732ZM187.251 35.7283C187.251 34.8077 187.459 33.9638 187.878 33.1966C188.304 32.4204 188.89 31.8067 189.636 31.3554C190.38 30.9041 191.225 30.6784 192.17 30.6784C193.115 30.6784 193.96 30.9041 194.705 31.3554C195.45 31.8067 196.031 32.4204 196.449 33.1966C196.876 33.9638 197.09 34.8077 197.09 35.7283C197.09 36.6489 196.876 37.4973 196.449 38.2735C196.031 39.0407 195.45 39.6499 194.705 40.1012C193.96 40.5525 193.115 40.7781 192.17 40.7781C191.225 40.7781 190.38 40.5525 189.636 40.1012C188.89 39.6499 188.304 39.0407 187.878 38.2735C187.459 37.4973 187.251 36.6489 187.251 35.7283ZM206.505 36.7978C206.505 37.5199 206.323 38.1833 205.96 38.788C205.597 39.3927 205.115 39.8756 204.516 40.2366C203.916 40.5886 203.289 40.7646 202.635 40.7646C201.918 40.7646 201.263 40.5886 200.673 40.2366C200.082 39.8846 199.614 39.4062 199.269 38.8015C198.933 38.1968 198.765 37.5289 198.765 36.7978V30.7868H199.978V36.7978C199.978 37.3213 200.091 37.7907 200.318 38.2058C200.545 38.621 200.859 38.9459 201.259 39.1806C201.667 39.4153 202.126 39.5326 202.635 39.5326C203.107 39.5326 203.543 39.4153 203.943 39.1806C204.352 38.9459 204.679 38.621 204.925 38.2058C205.17 37.7816 205.292 37.3123 205.292 36.7978V30.7868H206.505V36.7978ZM209.811 39.5055H214.84V40.6698H208.612V30.7868H209.811V39.5055Z" fill="#FF9B9B"/>
</svg>
