<svg width="239" height="77" viewBox="0 0 239 77" fill="none" xmlns="http://www.w3.org/2000/svg">
<path d="M0.931819 75V2.27273H25.5057C31.1875 2.27273 35.8513 3.24337 39.4972 5.18466C43.143 7.10227 45.8419 9.74195 47.5938 13.1037C49.3456 16.4654 50.2216 20.2888 50.2216 24.5739C50.2216 28.8589 49.3456 32.6586 47.5938 35.973C45.8419 39.2874 43.1548 41.8916 39.5327 43.7855C35.9105 45.6558 31.2822 46.5909 25.6477 46.5909H5.76136V38.6364H25.3636C29.2462 38.6364 32.3712 38.0682 34.7386 36.9318C37.1297 35.7955 38.858 34.1856 39.9233 32.1023C41.0123 29.9953 41.5568 27.4858 41.5568 24.5739C41.5568 21.6619 41.0123 19.1169 39.9233 16.9389C38.8343 14.7609 37.0942 13.08 34.7031 11.8963C32.312 10.6889 29.1515 10.0852 25.2216 10.0852H9.73864V75H0.931819ZM35.1648 42.3295L53.0625 75H42.8352L25.2216 42.3295H35.1648ZM64.8967 75V2.27273H108.789V10.0852H73.7035V34.6591H106.516V42.4716H73.7035V67.1875H109.357V75H64.8967ZM129.634 65.696C127.882 65.696 126.379 65.0687 125.124 63.8139C123.869 62.5592 123.242 61.0559 123.242 59.304C123.242 57.5521 123.869 56.0488 125.124 54.794C126.379 53.5393 127.882 52.9119 129.634 52.9119C131.386 52.9119 132.889 53.5393 134.144 54.794C135.399 56.0488 136.026 57.5521 136.026 59.304C136.026 60.464 135.73 61.5294 135.138 62.5C134.57 63.4706 133.801 64.2519 132.83 64.8438C131.883 65.4119 130.818 65.696 129.634 65.696ZM129.634 28.9062C127.882 28.9062 126.379 28.2789 125.124 27.0241C123.869 25.7694 123.242 24.2661 123.242 22.5142C123.242 20.7623 123.869 19.259 125.124 18.0043C126.379 16.7495 127.882 16.1222 129.634 16.1222C131.386 16.1222 132.889 16.7495 134.144 18.0043C135.399 19.259 136.026 20.7623 136.026 22.5142C136.026 23.6742 135.73 24.7396 135.138 25.7102C134.57 26.6809 133.801 27.4621 132.83 28.054C131.883 28.6222 130.818 28.9062 129.634 28.9062ZM194.531 76.1364L158.025 39.6307C155.113 36.7188 153.172 33.3333 152.201 29.4744C151.254 25.6155 151.266 21.7803 152.237 17.9688C153.208 14.1335 155.137 10.7955 158.025 7.95454C160.984 5.04261 164.358 3.11316 168.146 2.16619C171.958 1.19555 175.757 1.19555 179.545 2.16619C183.357 3.13684 186.742 5.06629 189.701 7.95454L194.531 12.642L199.36 7.95454C202.343 5.06629 205.729 3.13684 209.517 2.16619C213.305 1.19555 217.092 1.19555 220.88 2.16619C224.692 3.11316 228.077 5.04261 231.037 7.95454C233.925 10.7955 235.854 14.1335 236.825 17.9688C237.796 21.7803 237.796 25.6155 236.825 29.4744C235.878 33.3333 233.949 36.7188 231.037 39.6307L194.531 76.1364Z" fill="#FF9B9B"/>
</svg>
