<svg width="111" height="19" viewBox="0 0 111 19" fill="none" xmlns="http://www.w3.org/2000/svg">
<path d="M11.2727 18.2727L2.51136 9.51136C1.8125 8.8125 1.34659 8 1.11364 7.07386C0.886364 6.14773 0.889205 5.22727 1.12216 4.3125C1.35511 3.39205 1.81818 2.59091 2.51136 1.90909C3.22159 1.21023 4.03125 0.747159 4.94034 0.519886C5.85511 0.286932 6.76705 0.286932 7.67614 0.519886C8.59091 0.752841 9.40341 1.21591 10.1136 1.90909L11.2727 3.03409L12.4318 1.90909C13.1477 1.21591 13.9602 0.752841 14.8693 0.519886C15.7784 0.286932 16.6875 0.286932 17.5966 0.519886C18.5114 0.747159 19.3239 1.21023 20.0341 1.90909C20.7273 2.59091 21.1903 3.39205 21.4233 4.3125C21.6563 5.22727 21.6563 6.14773 21.4233 7.07386C21.196 8 20.733 8.8125 20.0341 9.51136L11.2727 18.2727ZM41.9482 4.90909C41.8459 4.04545 41.4311 3.375 40.7038 2.89773C39.9766 2.42045 39.0845 2.18182 38.0277 2.18182C37.255 2.18182 36.5788 2.30682 35.9993 2.55682C35.4254 2.80682 34.9766 3.15057 34.6527 3.58807C34.3345 4.02557 34.1754 4.52273 34.1754 5.07954C34.1754 5.54545 34.2862 5.94602 34.5078 6.28125C34.7351 6.6108 35.0249 6.88636 35.3771 7.10795C35.7294 7.32386 36.0987 7.50284 36.4851 7.64489C36.8714 7.78125 37.2266 7.89205 37.5504 7.97727L39.3232 8.45455C39.7777 8.57386 40.2834 8.73864 40.8402 8.94886C41.4027 9.15909 41.9396 9.44602 42.451 9.80966C42.968 10.1676 43.3942 10.6278 43.7294 11.1903C44.0646 11.7528 44.2322 12.4432 44.2322 13.2614C44.2322 14.2045 43.9851 15.0568 43.4908 15.8182C43.0021 16.5795 42.2862 17.1847 41.343 17.6335C40.4055 18.0824 39.2663 18.3068 37.9254 18.3068C36.6754 18.3068 35.593 18.1051 34.6783 17.7017C33.7692 17.2983 33.0533 16.7358 32.5305 16.0142C32.0135 15.2926 31.7209 14.4545 31.6527 13.5H33.8345C33.8913 14.1591 34.1129 14.7045 34.4993 15.1364C34.8913 15.5625 35.3857 15.8807 35.9822 16.0909C36.5845 16.2955 37.2322 16.3977 37.9254 16.3977C38.7322 16.3977 39.4567 16.267 40.0987 16.0057C40.7408 15.7386 41.2493 15.3693 41.6243 14.8977C41.9993 14.4205 42.1868 13.8636 42.1868 13.2273C42.1868 12.6477 42.0249 12.1761 41.701 11.8125C41.3771 11.4489 40.951 11.1534 40.4226 10.9261C39.8942 10.6989 39.3232 10.5 38.7095 10.3295L36.5618 9.71591C35.1982 9.32386 34.1186 8.7642 33.3232 8.03693C32.5277 7.30966 32.13 6.35795 32.13 5.18182C32.13 4.20454 32.3942 3.35227 32.9226 2.625C33.4567 1.89205 34.1726 1.32386 35.0703 0.920454C35.9737 0.511363 36.9822 0.306818 38.0959 0.306818C39.2209 0.306818 40.2209 0.508522 41.0959 0.911931C41.9709 1.30966 42.6641 1.85511 43.1754 2.54829C43.6925 3.24148 43.9652 4.02841 43.9936 4.90909H41.9482ZM46.7528 2.42045V0.545454H59.8438V2.42045H54.3551V18H52.2415V2.42045H46.7528ZM63.1058 18V0.545454H73.6399V2.42045H65.2195V8.31818H73.0945V10.1932H65.2195V16.125H73.7763V18H63.1058ZM77.4496 18V0.545454H83.3473C84.7166 0.545454 85.8359 0.792613 86.7053 1.28693C87.5803 1.77557 88.228 2.4375 88.6484 3.27273C89.0689 4.10795 89.2791 5.03977 89.2791 6.06818C89.2791 7.09659 89.0689 8.03125 88.6484 8.87216C88.2337 9.71307 87.5916 10.3835 86.7223 10.8835C85.853 11.3778 84.7393 11.625 83.3814 11.625H79.1541V9.75H83.3132C84.2507 9.75 85.0036 9.58807 85.5717 9.2642C86.1399 8.94034 86.5518 8.50284 86.8075 7.9517C87.0689 7.39489 87.1996 6.76705 87.1996 6.06818C87.1996 5.36932 87.0689 4.74432 86.8075 4.19318C86.5518 3.64205 86.1371 3.21023 85.5632 2.89773C84.9893 2.57955 84.228 2.42045 83.2791 2.42045H79.5632V18H77.4496ZM104.582 18.2386C103.582 18.2386 102.681 18.0398 101.88 17.642C101.079 17.2443 100.437 16.6989 99.9538 16.0057C99.4709 15.3125 99.2067 14.5227 99.1612 13.6364H101.207C101.286 14.4261 101.644 15.0795 102.281 15.5966C102.923 16.108 103.69 16.3636 104.582 16.3636C105.298 16.3636 105.934 16.196 106.491 15.8608C107.053 15.5256 107.494 15.0653 107.812 14.4801C108.136 13.8892 108.298 13.2216 108.298 12.4773C108.298 11.7159 108.13 11.0369 107.795 10.4403C107.465 9.83807 107.011 9.36364 106.431 9.01705C105.852 8.67045 105.19 8.49432 104.445 8.48864C103.911 8.48295 103.363 8.56534 102.8 8.7358C102.238 8.90057 101.775 9.11364 101.411 9.375L99.4339 9.13636L100.491 0.545454H109.559V2.42045H102.263L101.65 7.56818H101.752C102.11 7.28409 102.559 7.0483 103.099 6.8608C103.638 6.6733 104.201 6.57955 104.786 6.57955C105.854 6.57955 106.806 6.83523 107.641 7.34659C108.482 7.85227 109.141 8.54545 109.619 9.42614C110.102 10.3068 110.343 11.3125 110.343 12.4432C110.343 13.5568 110.093 14.5511 109.593 15.4261C109.099 16.2955 108.417 16.983 107.548 17.4886C106.678 17.9886 105.69 18.2386 104.582 18.2386Z" fill="#FF9B9B"/>
</svg>
